<svg xmlns="http://www.w3.org/2000/svg" viewBox="0 0 633.6 633.6"><title>Слой 11</title><g id="Слой_2" data-name="Слой 2"><g id="Слой_1-2" data-name="Слой 1"><rect width="633.6" height="633.6" style="fill:none"/><path d="M386.07,38.64l15.65,4.87q9.34,2.91,12.31,7.82t.79,11.87l-2.64,8.5-10.45-3.25L403.42,63a5.89,5.89,0,0,0-.12-4.67c-.67-1.23-2.12-2.2-4.36-2.89L384.58,51q-4-1.26-5.44,3.26l-2.64,8.5L366.11,59.5l3.95-12.71q1.85-5.92,6-8T386.07,38.64Zm17.37-7.33-2.25,7.21-8.55-2.66,2.24-7.21Z" style="fill:#262424"/><path d="M372.75,20.36l-2,11.22c-2.64-.46-4.55-.27-5.72.59s-2,2.52-2.41,5L358.8,58.91,347.9,57l4.31-24.45q1.41-8,6.19-10.94T372.75,20.36Z" style="fill:#262424"/><path d="M338.56,76.84l-10.94-1.23,5.21-46.55,10.94,1.22Z" style="fill:#262424"/><path d="M292.85,45.38l.26-17.85,30.15.45-.19,12.22-19-.28L304,43.44q-.06,4.1,5.45,4.18a14.57,14.57,0,0,0,8.22-2.25l4.4,10q-5.7,4.2-14.79,4.07-6.9-.1-10.73-3.62T292.85,45.38Z" style="fill:#262424"/><path d="M289.37,13.25l.92,11.35q-4,.33-5.39,2c-.92,1.12-1.27,2.94-1.07,5.45l1.78,22-11,.89-2-24.75q-.66-8.1,3.22-12.14T289.37,13.25Z" style="fill:#262424"/><path d="M220.05,44.2,223,57.57l2.57-.57q2.81-.61,2.07-3.93l-3.42-15.5,19.49-4.31q9.57-2.11,14.57.68t6.59,9.91l1.92,8.69L256.1,54.9l-1.23-5.56a5.9,5.9,0,0,0-2.42-4q-1.78-1.11-5.22-.35l-9.75,2.16L239,53.84c.89,4,.49,7.34-1.23,9.88s-4.58,4.26-8.62,5.15l-14.37,3.18-5.63-25.43Z" style="fill:#262424"/></g></g></svg>