<svg xmlns="http://www.w3.org/2000/svg" viewBox="0 0 633.6 633.6"><title>Слой 11</title><g id="Слой_2" data-name="Слой 2"><g id="Слой_1-2" data-name="Слой 1"><rect width="633.6" height="633.6" style="fill:none"/><path d="M380.07,59.42c-3.63-.85-4.41-1.31-4.28-1.89s1.06-1.2,1.34-2.4l1-4.21-23.77-5.56L355.84,39,405.1,50.52l-1.49,6.36L385.9,52.74l-1.79,7.62ZM394,74.71l-39.32-9.19A62.43,62.43,0,0,1,361,48.86l7.11,2.78c-1.81,2.07-3.2,5.63-4.05,9.25l31.45,7.35Zm-31-48c1.2-5.15,8.43-8.56,22.89-5.18,14.3,3.34,19.32,9.62,18.12,14.77s-8.45,8.39-22.75,5.05C366.84,38,361.84,31.81,363,26.71Zm33.25,7.66c.58-2.47-2.52-5.35-11.62-7.48-9.25-2.16-13.2-.92-13.78,1.55s2.44,5.23,11.69,7.39S395.72,36.79,396.29,34.37Z" style="fill:#262424"/><path d="M344.68,64.2l-39.6-1.69.26-6,31.5,1.34.21-4.8-32.37-1.38.25-6,16.78.71.21-5-21.41-.91.27-6.53,50.61,2.16-.28,6.53-21.47-.92-.21,5,16,.69ZM305,22.14c.21-5,6.66-9.34,22-8.68,15,.63,21.11,5.49,20.9,10.51s-6.72,9.33-21.72,8.69C310.81,32,304.75,27.1,305,22.14Zm34.9,1.43c.1-2.32-3.42-4.52-13.08-4.94-10.09-.43-13.68,1.48-13.78,3.79s3.33,4.15,13.42,4.58C336.09,27.41,339.78,25.84,339.87,23.57Z" style="fill:#262424"/><path d="M291.68,63.08l-14.37,2.08-.9-6.2,14.38-2.08Zm3.43-10.26-23.84,3.45-.94-6.52,8.07-1.17c-.92-6.31-4.89-13.81-11.71-16.8a27.1,27.1,0,0,0,3.25-6.53,20.68,20.68,0,0,1,10.5,11,24.62,24.62,0,0,1,7.23-14.85,33.09,33.09,0,0,0,6,4.59c-6.18,4.06-9,14.29-8,21.51l8.49-1.23ZM265.94,68c-2.94.42-3.68.26-3.78-.44a22.13,22.13,0,0,0,.08-3.23l-6.46-44.62,7.43-1.08,3.11,21.54,6.9-1,.93,6.47-6.89,1,3,20.73Zm-11.21,2.11c-2.78.41-3.51.29-3.59-.3s.42-1.59.22-3l-6.72-46.38,7.59-1.1,7.25,50.07Z" style="fill:#262424"/></g></g></svg>