<svg xmlns="http://www.w3.org/2000/svg" viewBox="0 0 633.6 633.6"><title>Слой 11</title><g id="Слой_2" data-name="Слой 2"><g id="Слой_1-2" data-name="Слой 1"><rect width="633.6" height="633.6" style="fill:none"/><path d="M160.38,55.26l27.72-15,4.4,8.12L174.34,58.2l2.16,4,6.65-3.6c8-4.33,15.81-3.87,19.84,3.57,3.87,7.14.9,14.1-7.22,18.51l-16.69,9Zm30.29,17.79c2.86-1.55,3.84-3.74,2.56-6.1-1.15-2.12-3.57-2.59-6.38-1.07l-6.45,3.5,3.87,7.14Z" style="fill:#262424"/><path d="M198.78,35.36l15.72-5.92c9.27-3.5,17-1,20.14,7.25,3.26,8.64-1.68,15.71-10.79,19.14l-5,1.9,3.95,10.48L212.6,72ZM220.63,48c3.62-1.37,5.11-4.08,4-7.07-1.19-3.14-4-4-7.69-2.61l-4.77,1.8,3.65,9.69Z" style="fill:#262424"/><path d="M247.33,18.94l10.2-2.36,25.15,34.71-11.34,2.62L267,47.74l-14.73,3.4-1.15,7.45L240,61.16ZM262,40.2l-6.77-9.87-1.8,11.85Z" style="fill:#262424"/><path d="M287,21.64l-11.7,1.16-.94-9.47,34.21-3.4.94,9.47-11.7,1.16,2.94,29.53-10.81,1.08Z" style="fill:#262424"/><path d="M313.61,29.26C314,17.84,323.09,9.19,335,9.6c8,.27,12.86,3.91,16.17,8.84L343,24.33c-2.14-2.88-4.71-4.7-8.46-4.83-5.49-.19-9.51,4.32-9.71,10.14s3.51,10.6,9,10.79c4.09.14,6.56-1.68,9-4.46l8,6.1c-3.87,5-9,8.55-17.65,8.25A19.92,19.92,0,0,1,313.61,29.26Z" style="fill:#262424"/><path d="M368.32,23.17l-11.58-2,1.62-9.38,33.88,5.86L390.62,27,379,25,374,54.26l-10.7-1.85Z" style="fill:#262424"/><path d="M400.82,19.77,420,25.86c4.7,1.49,7.63,3.71,9.13,6.6a8.67,8.67,0,0,1,.45,6.9c-1.38,4.32-4.64,6.1-8.41,6.49,4.06,2.94,6.13,6.42,4.48,11.6-2,6.4-8.5,8.64-17.41,5.8L389,57.13Zm8.87,34.78c3.15,1,5.35.35,6.08-1.94.65-2-.53-3.87-4-5l-7.9-2.51L401.68,52Zm3-14.62c3.15,1,5.25.5,6-1.8.64-2-.59-3.71-3.68-4.69l-6.73-2.14-2.09,6.57Z" style="fill:#262424"/><path d="M433.25,50.86c5-10.07,17.23-14.19,28.05-8.78S476.11,59.55,471,69.72s-17.22,14.19-28,8.78S428.17,61,433.25,50.86Zm27.86,13.91c2.53-5.06,1.07-11.3-4.29-14s-11-.11-13.6,5.05-1.07,11.29,4.25,13.94S458.54,69.93,461.11,64.77Z" style="fill:#262424"/></g></g></svg>