<svg xmlns="http://www.w3.org/2000/svg" viewBox="0 0 633.6 633.6"><title>Слой 11</title><g id="Слой_2" data-name="Слой 2"><g id="Слой_1-2" data-name="Слой 1"><rect width="633.6" height="633.6" style="fill:none"/><path d="M121.94,264,147,245.12l5.73,7.6-16.38,12.33,4,5.32,14.81-11.15,5.42,7.21-14.81,11.14,8.42,11.19-8.68,6.53Z" transform="translate(0 -177.87)" style="fill:#262424"/><path d="M154.54,240.19l16.18-9c5.23-2.92,9.62-3.57,13.2-2.55,3.12.88,5.62,3,7.56,6.42a12.38,12.38,0,0,1-1.17,14.44l14.83,7.37L194.19,263l-12.68-6.52-4.16,2.32,5.79,10.37-9.48,5.3Zm24.92,7.64c3.22-1.8,4.21-4.41,2.76-7s-4.22-3-7.4-1.19l-6.21,3.47,4.59,8.21Z" transform="translate(0 -177.87)" style="fill:#262424"/><path d="M205.87,214.24l9.8-3.7,29.55,31.06-10.9,4.11-5.15-5.55L215,245.5l-.15,7.54-10.7,4Zm17.39,19.12-8-8.89-.21,12Z" transform="translate(0 -177.87)" style="fill:#262424"/><path d="M245.53,211.64l-11.45,2.71-2.19-9.27,33.46-7.92,2.19,9.27-11.44,2.71L262.93,238l-10.57,2.5Z" transform="translate(0 -177.87)" style="fill:#262424"/><path d="M274,195.85l31.37-3.11.91,9.19L285.61,204l.59,5.9L304.92,208l.85,8.53L287,218.42l.62,6.18,20.95-2.08.91,9.2-31.65,3.14Z" transform="translate(0 -177.87)" style="fill:#262424"/><path d="M315.32,192.41l18.52.72c6,.23,10.07,2,12.6,4.7,2.2,2.38,3.26,5.45,3.11,9.42-.23,6-3.58,9.84-8.53,11.72l8.82,14-12.54-.48-7.43-12.17-4.75-.19L324.66,232l-10.86-.43Zm17.29,19.5c3.69.15,5.89-1.56,6-4.53s-2.05-4.73-5.69-4.87l-7.11-.27-.36,9.4Z" transform="translate(0 -177.87)" style="fill:#262424"/><path d="M359.93,194.85l10,1.88,12,23.36,3.85-20.36,10.57,2L389,240.24l-9.35-1.77-12.45-24.23-4,21.12-10.56-2Z" transform="translate(0 -177.87)" style="fill:#262424"/><path d="M406.31,205l10.44,3.21-11.51,37.47-10.44-3.21Z" transform="translate(0 -177.87)" style="fill:#262424"/><path d="M431.55,223.63l-10.85-4.55,3.69-8.78,31.7,13.31-3.68,8.77-10.84-4.54-11.49,27.37-10-4.21Z" transform="translate(0 -177.87)" style="fill:#262424"/><path d="M471.19,231.66l9.06,5.25-5.36,42.52-10.07-5.84,1-7.49-13.09-7.58-5.93,4.66L437,257.45Zm-3.81,25.56,1.81-11.84-9.41,7.43Z" transform="translate(0 -177.87)" style="fill:#262424"/><path d="M477.49,274.54l9.22-1.92a20.24,20.24,0,0,0,7.07,11.57c2.28,1.8,4.14,2,5.25.57s.55-2.77-2.86-7c-5.37-6.66-9-12.49-3.91-18.91,4.51-5.72,12.3-6.28,19.69-.45,5.23,4.13,8.21,8.76,9.43,14.08l-9,2.66a19.59,19.59,0,0,0-6.22-9.83c-2.06-1.63-3.77-1.55-4.71-.37-1.11,1.41-.54,2.86,3,7.19,5.87,7.12,8.46,12.88,3.84,18.73-5,6.28-12.87,6.1-20.35.2A27.38,27.38,0,0,1,477.49,274.54Z" transform="translate(0 -177.87)" style="fill:#262424"/><path d="M441.45,23.44" transform="translate(0 -177.87)" style="fill:#262424"/><path d="M560.58,0" transform="translate(0 -177.87)" style="fill:#262424"/></g></g></svg>